<svg xmlns="http://www.w3.org/2000/svg" viewBox="0 0 64 64"><defs><style>.cls-1{fill:#000842;}.cls-2{fill:#fff;}.cls-3{fill:#f6ae2d;}</style></defs><title>Zeichenfläche 1</title><g id="Ebene_1" data-name="Ebene 1"><rect class="cls-1" width="64" height="64"/></g><g id="Ebene_18" data-name="Ebene 18"><rect class="cls-2" x="10.72" y="30.18" width="33.47" height="23.91" rx="3.59" ry="3.59"/><path class="cls-3" d="M43,11.35A10.77,10.77,0,0,0,32.22,22.11l0,8.07h3.61v-8a7.17,7.17,0,1,1,14.34-.09v4.18a1.8,1.8,0,0,0,3.59,0V22.21A10.83,10.83,0,0,0,43,11.35Z"/></g><g id="Ebene_19" data-name="Ebene 19"><path class="cls-1" d="M31.33,40.12a4.05,4.05,0,0,1-1.32,3c-.72.65.11,6.63.11,6.63l-5.66,0s.63-6.13.06-6.67a4,4,0,1,1,6.81-2.94Z"/></g></svg>